<svg id="Layer_1" data-name="Layer 1" xmlns="http://www.w3.org/2000/svg" viewBox="0 0 512 512"><title>tumbler-glyph</title><g id="Tumblr"><circle id="back" cx="256" cy="256" r="256" fill="#929292"/><g id="Tumblr-2" data-name="Tumblr"><path d="M294.5,409.6c30.74,0,61.2-10.95,71.27-24.2l2-2.66-19.05-56.48a1.28,1.28,0,0,0-1.22-.87H305a1.27,1.27,0,0,1-1.25-.93,29.61,29.61,0,0,1-.84-7V248.36a1.28,1.28,0,0,1,1.29-1.28h50.08a1.29,1.29,0,0,0,1.29-1.29V175.13a1.29,1.29,0,0,0-1.29-1.28H304.37a1.29,1.29,0,0,1-1.28-1.29V103.68a1.29,1.29,0,0,0-1.29-1.28H214.35a14.86,14.86,0,0,0-14.53,13.23c-4.37,35.55-20.67,56.88-51.31,67.13l-3.42,1.14a1.28,1.28,0,0,0-.88,1.22v60.67a1.29,1.29,0,0,0,1.29,1.29h31.3V321.8C176.79,381.46,218.11,409.6,294.5,409.6Zm58.57-28.84c-9.59,9.23-29.28,16.08-48.15,16.39l-2.11,0h0c-62.06,0-78.62-47.38-78.62-75.37v-86a1.29,1.29,0,0,0-1.29-1.29h-30a1.28,1.28,0,0,1-1.29-1.28V194a1.27,1.27,0,0,1,.82-1.18c32.07-12.49,50-37.3,54.7-75.67a2.25,2.25,0,0,1,2-2.2h40.06a1.29,1.29,0,0,1,1.29,1.29v68.88a1.28,1.28,0,0,0,1.29,1.28h49.87a1.28,1.28,0,0,1,1.28,1.29v45.5a1.28,1.28,0,0,1-1.28,1.28H291.57a1.29,1.29,0,0,0-1.29,1.29v81.75c.3,18.41,9.2,27.74,26.48,27.74a64.57,64.57,0,0,0,22.21-4.4,1.27,1.27,0,0,1,1.66.77l12.74,37.77A1.29,1.29,0,0,1,353.07,380.77Z" fill="#fff"/></g></g></svg>